<?xml version="1.0" encoding="UTF-8" standalone="no"?>
<!-- Uploaded to: SVG Repo, www.svgrepo.com, Generator: SVG Repo Mixer Tools -->

<svg
   fill="#000000"
   height="800px"
   width="800px"
   version="1.1"
   id="Layer_1"
   viewBox="0 0 485 485"
   xml:space="preserve"
   sodipodi:docname="derpic-logo.svg"
   inkscape:version="1.3.2 (091e20e, 2023-11-25, custom)"
   xmlns:inkscape="http://www.inkscape.org/namespaces/inkscape"
   xmlns:sodipodi="http://sodipodi.sourceforge.net/DTD/sodipodi-0.dtd"
   xmlns="http://www.w3.org/2000/svg"
   xmlns:svg="http://www.w3.org/2000/svg"><defs
   id="defs5"><inkscape:path-effect
     effect="powerstroke"
     id="path-effect93"
     is_visible="true"
     lpeversion="1.3"
     scale_width="1"
     interpolator_type="CentripetalCatmullRom"
     interpolator_beta="0.75"
     start_linecap_type="round"
     end_linecap_type="round"
     offset_points="19.090843,12.531551"
     linejoin_type="spiro"
     miter_limit="4"
     not_jump="true"
     sort_points="true"
     message="&lt;b&gt;Ctrl + click&lt;/b&gt; on existing node and move it" /><inkscape:path-effect
     effect="simplify"
     id="path-effect92"
     is_visible="true"
     lpeversion="1.3"
     threshold="0.012"
     steps="1"
     smooth_angles="0"
     helper_size="0"
     simplify_individual_paths="false"
     simplify_just_coalesce="false"
     step="1" /><inkscape:path-effect
     effect="powerstroke"
     id="path-effect91"
     is_visible="true"
     lpeversion="1.3"
     scale_width="1"
     interpolator_type="CentripetalCatmullRom"
     interpolator_beta="0.75"
     start_linecap_type="round"
     end_linecap_type="round"
     offset_points="8.321148,4.4305725"
     linejoin_type="spiro"
     miter_limit="4"
     not_jump="true"
     sort_points="true"
     message="&lt;b&gt;Ctrl + click&lt;/b&gt; on existing node and move it" /><inkscape:path-effect
     effect="simplify"
     id="path-effect90"
     is_visible="true"
     lpeversion="1.3"
     threshold="0.012"
     steps="1"
     smooth_angles="0"
     helper_size="0"
     simplify_individual_paths="false"
     simplify_just_coalesce="false"
     step="1" /><inkscape:path-effect
     effect="powerstroke"
     id="path-effect89"
     is_visible="true"
     lpeversion="1.3"
     scale_width="1"
     interpolator_type="CentripetalCatmullRom"
     interpolator_beta="0.75"
     start_linecap_type="round"
     end_linecap_type="round"
     offset_points="24.182585,4.4305725"
     linejoin_type="spiro"
     miter_limit="4"
     not_jump="true"
     sort_points="true"
     message="&lt;b&gt;Ctrl + click&lt;/b&gt; on existing node and move it" /><inkscape:path-effect
     effect="simplify"
     id="path-effect88"
     is_visible="true"
     lpeversion="1.3"
     threshold="0.012"
     steps="1"
     smooth_angles="0"
     helper_size="0"
     simplify_individual_paths="false"
     simplify_just_coalesce="false"
     step="1" /><inkscape:path-effect
     effect="powerstroke"
     id="path-effect87"
     is_visible="true"
     lpeversion="1.3"
     scale_width="1"
     interpolator_type="CentripetalCatmullRom"
     interpolator_beta="0.75"
     start_linecap_type="round"
     end_linecap_type="round"
     offset_points="23.557699,12.531551"
     linejoin_type="spiro"
     miter_limit="4"
     not_jump="true"
     sort_points="true"
     message="&lt;b&gt;Ctrl + click&lt;/b&gt; on existing node and move it" /><inkscape:path-effect
     effect="simplify"
     id="path-effect86"
     is_visible="true"
     lpeversion="1.3"
     threshold="0.012"
     steps="1"
     smooth_angles="0"
     helper_size="0"
     simplify_individual_paths="false"
     simplify_just_coalesce="false"
     step="1" /><inkscape:path-effect
     effect="powerstroke"
     id="path-effect84"
     is_visible="true"
     lpeversion="1.3"
     scale_width="1"
     interpolator_type="CentripetalCatmullRom"
     interpolator_beta="0.75"
     start_linecap_type="round"
     end_linecap_type="round"
     offset_points="202.24507,6.2657757"
     linejoin_type="spiro"
     miter_limit="4"
     not_jump="true"
     sort_points="true"
     message="&lt;b&gt;Ctrl + click&lt;/b&gt; on existing node and move it" /><inkscape:path-effect
     effect="simplify"
     id="path-effect83"
     is_visible="true"
     lpeversion="1.3"
     threshold="0.012"
     steps="1"
     smooth_angles="0"
     helper_size="0"
     simplify_individual_paths="false"
     simplify_just_coalesce="false"
     step="1" /><inkscape:path-effect
     effect="powerstroke"
     id="path-effect82"
     is_visible="true"
     lpeversion="1.3"
     scale_width="1"
     interpolator_type="CentripetalCatmullRom"
     interpolator_beta="0.75"
     start_linecap_type="round"
     end_linecap_type="round"
     offset_points="23.766314,6.2657757"
     linejoin_type="spiro"
     miter_limit="4"
     not_jump="true"
     sort_points="true"
     message="&lt;b&gt;Ctrl + click&lt;/b&gt; on existing node and move it" /><inkscape:path-effect
     effect="simplify"
     id="path-effect81"
     is_visible="true"
     lpeversion="1.3"
     threshold="0.012"
     steps="1"
     smooth_angles="0"
     helper_size="0"
     simplify_individual_paths="false"
     simplify_just_coalesce="false"
     step="1" /><inkscape:path-effect
     effect="powerstroke"
     id="path-effect80"
     is_visible="true"
     lpeversion="1.3"
     scale_width="1"
     interpolator_type="CentripetalCatmullRom"
     interpolator_beta="0.75"
     start_linecap_type="round"
     end_linecap_type="round"
     offset_points="5.6788413,6.2657757"
     linejoin_type="spiro"
     miter_limit="4"
     not_jump="true"
     sort_points="true"
     message="&lt;b&gt;Ctrl + click&lt;/b&gt; on existing node and move it" /><inkscape:path-effect
     effect="simplify"
     id="path-effect79"
     is_visible="true"
     lpeversion="1.3"
     threshold="0.012"
     steps="1"
     smooth_angles="0"
     helper_size="0"
     simplify_individual_paths="false"
     simplify_just_coalesce="false"
     step="1" /><inkscape:path-effect
     effect="powerstroke"
     id="path-effect78"
     is_visible="true"
     lpeversion="1.3"
     scale_width="1"
     interpolator_type="CentripetalCatmullRom"
     interpolator_beta="0.75"
     start_linecap_type="round"
     end_linecap_type="round"
     offset_points="31.671165,12.531551"
     linejoin_type="spiro"
     miter_limit="4"
     not_jump="true"
     sort_points="true"
     message="&lt;b&gt;Ctrl + click&lt;/b&gt; on existing node and move it" /><inkscape:path-effect
     effect="simplify"
     id="path-effect77"
     is_visible="true"
     lpeversion="1.3"
     threshold="0.012"
     steps="1"
     smooth_angles="0"
     helper_size="0"
     simplify_individual_paths="false"
     simplify_just_coalesce="false"
     step="1" /><inkscape:path-effect
     effect="powerstroke"
     id="path-effect74"
     is_visible="true"
     lpeversion="1.3"
     scale_width="1"
     interpolator_type="CubicBezierJohan"
     interpolator_beta="0.2"
     start_linecap_type="zerowidth"
     end_linecap_type="zerowidth"
     offset_points="0,2.49"
     linejoin_type="extrp_arc"
     miter_limit="4"
     not_jump="false"
     sort_points="true"
     message="&lt;b&gt;Ctrl + click&lt;/b&gt; on existing node and move it" /><inkscape:path-effect
     effect="skeletal"
     id="path-effect52"
     is_visible="true"
     lpeversion="1"
     pattern="M 0,11.438679 C 0,5.1245283 5.1245283,0 11.438679,0 c 6.314151,0 11.438679,5.1245283 11.438679,11.438679 0,6.314151 -5.124528,11.438679 -11.438679,11.438679 C 5.1245283,22.877358 0,17.75283 0,11.438679 Z"
     copytype="single_stretched"
     prop_scale="0.5"
     scale_y_rel="false"
     spacing="0"
     normal_offset="0"
     tang_offset="0"
     prop_units="false"
     vertical_pattern="false"
     hide_knot="false"
     fuse_tolerance="0" /><inkscape:path-effect
     effect="spiro"
     id="path-effect51"
     is_visible="true"
     lpeversion="1" /><inkscape:path-effect
     effect="simplify"
     id="path-effect50"
     is_visible="true"
     lpeversion="1.3"
     threshold="27.5"
     steps="1"
     smooth_angles="360"
     helper_size="0"
     simplify_individual_paths="false"
     simplify_just_coalesce="false" /><inkscape:path-effect
     effect="fillet_chamfer"
     id="path-effect41"
     is_visible="true"
     lpeversion="1"
     nodesatellites_param="F,0,0,1,0,0,0,1 @ F,0,0,1,0,0,0,1 @ F,0,0,1,0,15.900791,0,1 @ F,0,0,1,0,15.618697,0,1 @ F,0,0,1,0,18.566047,0,1 @ F,0,0,1,0,22.194329,0,1 @ F,0,0,1,0,15.336994,0,1"
     radius="0"
     unit="px"
     method="auto"
     mode="F"
     chamfer_steps="1"
     flexible="false"
     use_knot_distance="true"
     apply_no_radius="true"
     apply_with_radius="true"
     only_selected="false"
     hide_knots="false" /><inkscape:path-effect
     effect="fillet_chamfer"
     id="path-effect40"
     is_visible="true"
     lpeversion="1"
     nodesatellites_param="F,0,0,1,0,0,0,1 @ F,0,0,1,0,0,0,1 @ F,0,0,1,0,30.650482,0,1 @ F,0,0,1,0,0,0,1 @ F,0,0,1,0,0,0,1 @ F,0,0,1,0,0,0,1"
     radius="0"
     unit="px"
     method="auto"
     mode="F"
     chamfer_steps="1"
     flexible="false"
     use_knot_distance="true"
     apply_no_radius="true"
     apply_with_radius="true"
     only_selected="false"
     hide_knots="false" /><inkscape:path-effect
     effect="fillet_chamfer"
     id="path-effect39"
     is_visible="true"
     lpeversion="1"
     nodesatellites_param="F,0,0,1,0,0,0,1 @ F,0,0,1,0,0,0,1 @ F,0,0,1,0,0,0,1 @ F,0,0,1,0,27.308735,0,1 @ F,0,0,1,0,0,0,1 @ F,0,0,1,0,0,0,1"
     radius="0"
     unit="px"
     method="auto"
     mode="F"
     chamfer_steps="1"
     flexible="false"
     use_knot_distance="true"
     apply_no_radius="true"
     apply_with_radius="true"
     only_selected="false"
     hide_knots="false" /><inkscape:path-effect
     effect="fillet_chamfer"
     id="path-effect38"
     is_visible="true"
     lpeversion="1"
     nodesatellites_param="F,0,0,1,0,0,0,1 @ F,0,0,1,0,0,0,1 @ F,0,0,1,0,0,0,1 @ F,0,0,1,0,0,0,1 @ F,0,0,1,0,0,0,1 @ F,0,0,1,0,27.308735,0,1"
     radius="0"
     unit="px"
     method="auto"
     mode="F"
     chamfer_steps="1"
     flexible="false"
     use_knot_distance="true"
     apply_no_radius="true"
     apply_with_radius="true"
     only_selected="false"
     hide_knots="false" /><inkscape:path-effect
     effect="fillet_chamfer"
     id="path-effect37"
     is_visible="true"
     lpeversion="1"
     nodesatellites_param="F,0,0,1,0,0,0,1 @ F,0,0,1,0,0,0,1 @ F,0,0,1,0,0,0,1 @ F,0,0,1,0,23.131551,0,1 @ F,0,0,1,0,0,0,1 @ F,0,0,1,0,0,0,1"
     radius="0"
     unit="px"
     method="auto"
     mode="F"
     chamfer_steps="1"
     flexible="false"
     use_knot_distance="true"
     apply_no_radius="true"
     apply_with_radius="true"
     only_selected="false"
     hide_knots="false" /></defs><sodipodi:namedview
   id="namedview5"
   pagecolor="#ffffff"
   bordercolor="#666666"
   borderopacity="1.0"
   inkscape:showpageshadow="2"
   inkscape:pageopacity="0.0"
   inkscape:pagecheckerboard="0"
   inkscape:deskcolor="#d1d1d1"
   showgrid="false"
   inkscape:zoom="0.513125"
   inkscape:cx="266.99147"
   inkscape:cy="303.04507"
   inkscape:window-width="1920"
   inkscape:window-height="1017"
   inkscape:window-x="-8"
   inkscape:window-y="-8"
   inkscape:window-maximized="1"
   inkscape:current-layer="Layer_1" />
<g
   id="g5">
	<polygon
   points="30,30 106,30 106,0 0,0 0,106 30,106  "
   id="polygon1"
   inkscape:path-effect="#path-effect37"
   d="m 30,30 h 76 V 0 H 23.131551 A 23.131551,23.131551 135 0 0 0,23.131551 V 106 h 30 z" />
	<polygon
   points="379,0 379,30 455,30 455,106 485,106 485,0  "
   id="polygon2"
   inkscape:path-effect="#path-effect38"
   d="m 379,0 v 30 h 76 v 76 h 30 V 27.308735 A 27.308735,27.308735 45 0 0 457.69126,0 Z" />
	<polygon
   points="455,455 379,455 379,485 485,485 485,379 455,379  "
   id="polygon3"
   inkscape:path-effect="#path-effect39"
   d="m 455,455 h -76 v 30 h 78.69127 A 27.308735,27.308735 135 0 0 485,457.69126 V 379 h -30 z" />
	<polygon
   points="30,379 0,379 0,485 106,485 106,455 30,455  "
   id="polygon4"
   inkscape:path-effect="#path-effect40"
   d="M 30,379 H 0 v 75.34952 A 30.650482,30.650482 45 0 0 30.650482,485 H 106 V 455 H 30 Z" />
	<path
   d="M274.405,175c26.191,0,47.5-21.309,47.5-47.5S300.597,80,274.405,80s-47.5,21.309-47.5,47.5S248.214,175,274.405,175z"
   id="path4" />
	<polygon
   points="80,405 405,405 405,308.18 346.358,246.304 275.241,287.672 176.238,216.922 80,318.465  "
   id="polygon5"
   inkscape:path-effect="#path-effect41"
   d="m 80,405 h 325 v -80.91921 a 39.893185,39.893185 68.268558 0 0 -10.93791,-27.4419 l -36.96023,-38.99853 a 19.733037,19.733037 8.1755043 0 0 -24.24461,-3.48312 l -41.56782,24.17956 a 28.733559,28.733559 2.6822168 0 1 -31.15382,-1.45949 l -65.84024,-47.05106 a 25.492543,25.492543 174.50704 0 0 -33.32469,3.20466 L 90.55021,307.33322 A 38.478039,38.478039 111.73177 0 0 80,333.80199 Z" />
</g>
<path
   style="fill:#000000;stroke:none;stroke-width:0.60625px;stroke-linecap:butt;stroke-linejoin:miter;stroke-opacity:1"
   d="m 187.26553,279.42144 c 1.5412,0.64536 0.004,7.64418 -2.09602,18.49267 -1.44055,7.43614 -4.27159,24.94987 -8.50557,37.41847 -0.10437,0.30736 -0.21001,0.61399 -0.31695,0.91991 -2.78885,7.88686 -6.65783,15.73733 -9.48884,21.66919 -4.54878,9.61953 -6.50672,14.20016 -8.71396,20.59038 -1.80628,5.18806 -2.81876,8.45892 -3.96027,8.4246 -1.14151,-0.0343 -2.28862,-3.44219 -2.14749,-9.48378 0.16499,-6.43796 1.80184,-13.996 5.28882,-23.51258 2.46108,-6.78998 5.63094,-13.97603 8.22752,-21.4685 0.0973,-0.27708 0.19383,-0.55523 0.28978,-0.8345 4.53907,-13.21114 7.43129,-26.49118 11.22779,-36.10531 4.26934,-10.80866 8.65399,-16.75591 10.19519,-16.11055 z"
   id="path50"
   inkscape:path-effect="#path-effect50;#path-effect51;#path-effect52"
   inkscape:original-d="m 187.26553,279.42144 c -2.24843,4.94655 -4.01861,8.23901 -5.31669,13.58708 -1.77028,7.29357 -4.9729,26.35244 -8.56577,35.44459 -8.60887,21.78571 -17.94618,34.67711 -19.19915,58.48355" /><path
   style="fill:#000000;fill-rule:nonzero;stroke:none;stroke-width:0.60625px;stroke-linecap:butt;stroke-linejoin:miter;stroke-opacity:1"
   d="m 160.83812,268.14062 c -0.33417,24.06058 -1.00252,72.18173 -1.67087,120.30289 l 4.97952,0.0692 c 0.66835,-48.12116 1.3367,-96.24231 1.67087,-120.30289 z m 0,0 c -0.33417,24.06058 -1.00252,72.18173 -1.67087,120.30289 l 4.97952,0.0692 c 0.66835,-48.12116 1.3367,-96.24231 1.67087,-120.30289 z"
   id="path74"
   inkscape:path-effect="#path-effect74"
   inkscape:original-d="m 163.32788,268.1752 -1.67087,120.30289 z" /><path
   d="m 164.77444,382.05117 c 0.35348,-0.7195 0.66044,-1.50267 0.90315,-2.34622 0.23437,-0.81316 0.39713,-1.64153 0.50087,-2.47633 0.10633,-0.85471 0.14726,-1.68371 0.15394,-2.47842 0.007,-0.90504 -0.0294,-1.76593 -0.0637,-2.53425 -0.0351,-0.7861 -0.0655,-1.43001 -0.0645,-2.04175 5.5e-4,-0.32407 0.0104,-0.61315 0.0312,-0.87385 0.0594,-0.75664 0.15935,-1.55281 0.29785,-2.44633 0.20665,-1.3325 0.42688,-2.45898 0.70841,-4.06525 0.18573,-1.05981 0.38415,-2.25962 0.53385,-3.50669 0.0498,-0.41467 0.0951,-0.84355 0.13377,-1.284 0.10661,-1.1945 0.18974,-2.39916 0.2589,-3.61459 0.0892,-1.57401 0.15392,-3.15569 0.20323,-4.76044 0.0615,-2.01361 0.0978,-4.04404 0.11584,-6.10772 0.0212,-2.46605 0.016,-4.96045 -0.0125,-7.49464 -0.0277,-2.44861 -0.0771,-4.93601 -0.15142,-7.4585 -0.0571,-1.93231 -0.12925,-3.90515 -0.22315,-5.90264 -0.0565,-1.19989 -0.12198,-2.42754 -0.2006,-3.67135 -0.27755,-4.45773 -0.51779,-8.98238 -0.65857,-13.51531 -0.12198,-3.92861 -0.17047,-7.89921 -0.10101,-11.88355 0.063,-3.61409 0.22345,-7.25832 0.51743,-10.90929 0.16603,-2.06235 0.37588,-4.14076 0.63706,-6.2284 0.001,-0.0107 0.003,-0.0215 0.004,-0.0322 0.0403,-0.33631 0.0628,-0.6395 0.0774,-0.85091 0.0265,-0.39207 0.0438,-0.76025 0.0581,-1.076 0.0234,-0.52369 0.0318,-0.7418 0.0551,-1.26093 0.006,-0.12109 0.0112,-0.24112 0.0171,-0.36016 0.0297,-0.59906 0.064,-1.16816 0.11296,-1.71398 0.0314,-0.34806 0.0664,-0.66009 0.10866,-0.94431 0.0299,-0.20007 0.0567,-0.3399 0.0799,-0.43887 0.017,-0.0724 0.0149,-0.0473 -0.0148,0.0349 -0.001,0.004 -0.003,0.007 -0.004,0.0111 -0.0151,0.0414 -0.0896,0.24372 -0.24438,0.51373 -0.003,0.004 -0.005,0.009 -0.008,0.0133 -0.10164,0.17632 -0.3444,0.57007 -0.77172,0.99868 -0.0505,0.0507 -0.10189,0.10046 -0.15411,0.14936 -0.64683,0.60578 -1.27404,0.93654 -1.67969,1.11829 -0.39973,0.17911 -0.60933,0.23389 -0.60845,0.23362 l -0.14039,0.0431 c -0.47821,0.14054 -0.74958,0.16309 -0.77172,0.16594 -0.0119,0.002 -0.0238,0.003 -0.0357,0.005 -0.13194,0.0162 -0.17935,0.0158 -0.13427,0.0138 l -0.0129,5.7e-4 c 0.0626,-0.003 0.15695,-0.005 0.32227,-0.004 0.24642,0.001 0.51979,0.009 0.8367,0.0203 0.44134,0.0164 0.89736,0.04 1.39808,0.068 0.0757,0.004 0.23416,0.0133 0.37531,0.0198 0.28102,0.0135 0.45416,0.009 0.5043,0.009 2.35174,0.003 4.70482,0.07 7.04803,0.2278 2.02719,0.13664 4.04799,0.34119 6.05055,0.63437 1.80787,0.26481 3.59879,0.60164 5.3593,1.02832 1.60108,0.38815 3.1741,0.85013 4.70384,1.40007 1.41804,0.50979 2.79678,1.09474 4.11923,1.76419 0.96217,0.48707 1.89591,1.01948 2.79229,1.59952 1.00742,0.65231 1.98639,1.38499 2.92705,2.1911 0.96893,0.83007 1.90075,1.74051 2.79357,2.72444 0.97564,1.075 1.90335,2.23553 2.78861,3.47365 0.92108,1.28819 1.79124,2.65278 2.62331,4.08851 0.90108,1.55497 1.74949,3.17918 2.56718,4.87186 0.87109,1.80336 1.69689,3.66295 2.51184,5.58918 0.42791,1.01143 0.83472,2.03723 1.21863,3.07655 0.30853,0.83525 0.60251,1.67993 0.88079,2.53346 0.21279,0.65265 0.41663,1.31124 0.61087,1.97542 0.16387,0.56031 0.32102,1.125 0.471,1.69383 0.12311,0.46695 0.2415,0.93708 0.35486,1.41025 0.11173,0.46633 0.21858,0.93563 0.32025,1.40772 0.0802,0.37245 0.15729,0.74699 0.23104,1.12351 0.0728,0.37157 0.14233,0.74508 0.20849,1.12043 0.0653,0.37045 0.12727,0.74272 0.18577,1.11669 0.0433,0.27702 0.0848,0.55526 0.12433,0.83466 0.0391,0.27619 0.0762,0.55352 0.1114,0.83194 0.0348,0.27525 0.0676,0.55158 0.0984,0.82892 0.0305,0.27423 0.059,0.54946 0.0854,0.82563 0.0261,0.27312 0.0503,0.54717 0.0723,0.82208 0.0218,0.27192 0.0416,0.54469 0.0592,0.81825 0.0173,0.26794 0.0325,0.53665 0.0456,0.80605 0.004,0.0868 0.008,0.18252 0.0128,0.27852 0.003,0.0785 0.007,0.17408 0.0109,0.26993 0.003,0.0783 0.006,0.17373 0.009,0.26943 0.002,0.0781 0.005,0.17337 0.008,0.26892 0.002,0.0779 0.004,0.173 0.007,0.2684 0.001,0.0776 0.003,0.17262 0.005,0.26787 0.001,0.0774 0.002,0.17223 0.004,0.26732 5.9e-4,0.0772 0.001,0.17185 0.002,0.26677 1.7e-4,0.0769 3.8e-4,0.17145 5.9e-4,0.26621 -2.5e-4,0.0767 -5.7e-4,0.17105 -8.8e-4,0.26564 -6.9e-4,0.0764 -0.002,0.17064 -0.002,0.26506 -0.001,0.0762 -0.002,0.17022 -0.004,0.26447 -0.002,0.0759 -0.003,0.1698 -0.005,0.26387 -0.002,0.0757 -0.004,0.16938 -0.007,0.26326 -0.002,0.0754 -0.005,0.16894 -0.008,0.26265 -0.003,0.0752 -0.006,0.1685 -0.01,0.26202 -0.003,0.0749 -0.007,0.16805 -0.0113,0.26138 -0.004,0.0747 -0.008,0.16761 -0.0128,0.26075 -0.004,0.0744 -0.009,0.16714 -0.0142,0.26008 -0.005,0.0741 -0.0101,0.16668 -0.0157,0.25943 -0.005,0.0738 -0.0111,0.16621 -0.0172,0.25876 -0.005,0.0735 -0.012,0.16573 -0.0187,0.25807 -0.006,0.0733 -0.013,0.16525 -0.0202,0.25739 -0.006,0.073 -0.0139,0.16476 -0.0217,0.25669 -0.007,0.0727 -0.0149,0.16427 -0.0232,0.25599 -0.007,0.0724 -0.0158,0.16376 -0.0247,0.25527 -0.007,0.0721 -0.0168,0.16326 -0.0262,0.25455 -0.008,0.0718 -0.0177,0.16275 -0.0276,0.25382 -0.008,0.0715 -0.0187,0.16223 -0.0291,0.25308 -0.009,0.0712 -0.0196,0.16171 -0.0306,0.25234 -0.009,0.0709 -0.0206,0.16117 -0.0321,0.25158 -0.009,0.0706 -0.0215,0.16064 -0.0336,0.25081 -0.01,0.0703 -0.0225,0.16011 -0.0351,0.25005 -0.0103,0.07 -0.0234,0.15956 -0.0366,0.24927 -0.0107,0.0696 -0.0244,0.15901 -0.0381,0.24848 -0.0111,0.0693 -0.0253,0.15846 -0.0396,0.24769 -0.0115,0.069 -0.0263,0.1579 -0.0411,0.24688 -0.0119,0.0687 -0.0272,0.15734 -0.0426,0.24608 -0.0123,0.0684 -0.0282,0.15677 -0.0441,0.24527 -0.0127,0.068 -0.0291,0.1562 -0.0456,0.24443 -0.0131,0.0677 -0.0301,0.15563 -0.0471,0.24361 -0.0135,0.0674 -0.031,0.15505 -0.0486,0.24278 -0.0139,0.0671 -0.032,0.15446 -0.05,0.24193 -0.0143,0.0667 -0.0329,0.15386 -0.0515,0.24107 -0.0147,0.0664 -0.0339,0.15328 -0.053,0.24022 -0.0151,0.0661 -0.0348,0.15268 -0.0545,0.23936 -0.0154,0.0657 -0.0357,0.15208 -0.056,0.23849 -0.0158,0.0654 -0.0367,0.15147 -0.0575,0.23761 -0.0162,0.0651 -0.0376,0.15087 -0.059,0.23673 -0.0166,0.0647 -0.0385,0.15025 -0.0605,0.23584 -0.017,0.0644 -0.0395,0.14964 -0.062,0.23495 -0.0174,0.064 -0.0404,0.14902 -0.0635,0.23405 -0.0178,0.0637 -0.0414,0.14839 -0.065,0.23314 -0.0181,0.0634 -0.0423,0.14777 -0.0665,0.23223 -0.0185,0.063 -0.0433,0.14714 -0.068,0.23132 -0.0189,0.0627 -0.0442,0.14651 -0.0695,0.23039 -0.0193,0.0623 -0.0451,0.14588 -0.071,0.22947 -0.0197,0.062 -0.0461,0.14524 -0.0725,0.22854 -0.02,0.0616 -0.047,0.1446 -0.074,0.2276 -0.0204,0.0613 -0.0479,0.14396 -0.0755,0.22666 -0.0208,0.0609 -0.0489,0.14332 -0.077,0.22571 -0.0212,0.0606 -0.0498,0.14268 -0.0785,0.22477 -0.0215,0.0603 -0.0507,0.14202 -0.08,0.22381 -0.0219,0.0599 -0.0517,0.14138 -0.0815,0.22286 -0.0223,0.0596 -0.0526,0.14072 -0.083,0.22189 -0.0226,0.0592 -0.0536,0.14007 -0.0845,0.22093 -0.023,0.0589 -0.0545,0.13941 -0.086,0.21996 -0.0234,0.0585 -0.0554,0.13875 -0.0875,0.21898 -0.0238,0.0582 -0.0564,0.1381 -0.089,0.21801 -0.0241,0.0579 -0.0573,0.13744 -0.0905,0.21703 -0.0245,0.0575 -0.0582,0.13678 -0.092,0.21605 -0.0249,0.0572 -0.0592,0.13612 -0.0935,0.21506 -0.0252,0.0568 -0.0601,0.13546 -0.095,0.21408 -0.0256,0.0565 -0.0611,0.13479 -0.0965,0.21308 -0.026,0.0562 -0.062,0.13413 -0.098,0.21209 -0.0263,0.0558 -0.063,0.13347 -0.0996,0.2111 -0.0267,0.0555 -0.0639,0.1328 -0.10108,0.2101 -0.0271,0.0552 -0.0648,0.13213 -0.10261,0.20909 -0.0274,0.0548 -0.0658,0.13147 -0.10412,0.2081 -0.0278,0.0545 -0.0667,0.1308 -0.10566,0.20709 -0.0282,0.0542 -0.0677,0.13013 -0.10718,0.20608 -0.0286,0.0539 -0.0686,0.12947 -0.10872,0.20507 -0.0289,0.0535 -0.0696,0.12881 -0.11025,0.20407 -0.0293,0.0532 -0.0705,0.12814 -0.1118,0.20305 -0.0297,0.0529 -0.0715,0.12748 -0.11334,0.20204 -0.03,0.0526 -0.0725,0.12682 -0.11488,0.20103 -0.0304,0.0523 -0.0734,0.12615 -0.11644,0.20001 -0.0308,0.052 -0.0744,0.12548 -0.11799,0.199 -0.0312,0.0516 -0.0754,0.12482 -0.11955,0.19797 -0.0316,0.0513 -0.0764,0.12416 -0.12111,0.19696 -0.0319,0.051 -0.0773,0.1235 -0.12269,0.19594 -0.0323,0.0507 -0.0783,0.12283 -0.12425,0.19491 -0.0327,0.0504 -0.0793,0.12218 -0.12584,0.1939 -0.0331,0.0501 -0.0803,0.12151 -0.12742,0.19287 -0.0335,0.0498 -0.0813,0.12085 -0.129,0.19185 -0.0339,0.0495 -0.0823,0.12019 -0.13061,0.19082 -0.0343,0.0492 -0.0833,0.11954 -0.1322,0.1898 -0.0347,0.0489 -0.0843,0.11888 -0.13381,0.18878 -0.0351,0.0487 -0.0853,0.11822 -0.13543,0.18774 -0.0355,0.0484 -0.0863,0.11757 -0.13704,0.18672 -0.0359,0.0481 -0.0873,0.11691 -0.13867,0.18569 -0.0363,0.0478 -0.0883,0.11626 -0.14031,0.18467 -0.0367,0.0475 -0.0894,0.1156 -0.14194,0.18363 -0.0372,0.0472 -0.0904,0.11495 -0.14359,0.1826 -0.0376,0.047 -0.0914,0.1143 -0.14525,0.18157 -0.038,0.0467 -0.0925,0.11365 -0.14692,0.18054 -0.0384,0.0464 -0.0935,0.113 -0.14858,0.1795 -0.0389,0.0462 -0.0946,0.11236 -0.15027,0.17848 -0.0393,0.0459 -0.0957,0.1117 -0.15196,0.17743 -0.0397,0.0457 -0.0967,0.11106 -0.15365,0.1764 -0.0402,0.0454 -0.0978,0.11041 -0.15536,0.17536 -0.0407,0.0451 -0.0989,0.10976 -0.15707,0.17433 -0.0411,0.0449 -0.1,0.10911 -0.1588,0.17328 -0.0416,0.0446 -0.1011,0.10847 -0.16053,0.17224 -0.0421,0.0444 -0.10221,0.10782 -0.16228,0.1712 -0.0425,0.0441 -0.10332,0.10718 -0.16403,0.17015 -0.043,0.0439 -0.10445,0.10653 -0.1658,0.16911 -0.0435,0.0436 -0.10557,0.10588 -0.16757,0.16806 -0.044,0.0434 -0.10671,0.10523 -0.16936,0.167 -0.0445,0.0431 -0.10786,0.10459 -0.17115,0.16596 -0.045,0.0429 -0.10901,0.10394 -0.17295,0.1649 -0.0455,0.0426 -0.11019,0.10329 -0.17478,0.16383 -0.046,0.0424 -0.11135,0.10265 -0.1766,0.16278 -0.0465,0.0422 -0.11254,0.10199 -0.17844,0.16172 -0.0471,0.0419 -0.11373,0.10134 -0.18029,0.16064 -0.0476,0.0417 -0.11493,0.10069 -0.18215,0.15958 -0.0481,0.0415 -0.11615,0.10003 -0.18403,0.1585 -0.0487,0.0412 -0.11736,0.0994 -0.18592,0.15743 -0.0492,0.041 -0.11859,0.0987 -0.18781,0.15635 -0.0498,0.0408 -0.11982,0.0981 -0.18972,0.15526 -0.0504,0.0405 -0.12107,0.0974 -0.19164,0.15417 -0.051,0.0403 -0.12233,0.0967 -0.19357,0.15307 -0.0515,0.0401 -0.1236,0.0961 -0.19552,0.15198 -0.0521,0.0398 -0.12488,0.0954 -0.19748,0.15088 -0.0527,0.0396 -0.12616,0.0947 -0.19945,0.14976 -0.0533,0.0394 -0.12746,0.0941 -0.20143,0.14865 -0.0539,0.0391 -0.12877,0.0934 -0.20343,0.14754 -0.0546,0.0389 -0.13008,0.0927 -0.20544,0.14641 -0.0552,0.0386 -0.1314,0.092 -0.20745,0.14528 -0.0558,0.0384 -0.13275,0.0913 -0.20949,0.14414 -0.0565,0.0382 -0.13409,0.0906 -0.21154,0.14299 -0.0571,0.0379 -0.13544,0.09 -0.21359,0.14185 -0.0578,0.0377 -0.13681,0.0893 -0.21566,0.14069 -0.0584,0.0374 -0.13819,0.0885 -0.21775,0.13953 -0.0591,0.0372 -0.13957,0.0878 -0.21984,0.13836 -0.0598,0.0369 -0.14097,0.0871 -0.22195,0.13718 -0.0605,0.0367 -0.14238,0.0864 -0.22407,0.13599 -0.0611,0.0364 -0.1438,0.0857 -0.22621,0.1348 -0.0618,0.0362 -0.14522,0.085 -0.22835,0.1336 -0.0626,0.0359 -0.14666,0.0842 -0.23051,0.13238 -0.0633,0.0357 -0.14811,0.0835 -0.23268,0.13117 -0.064,0.0354 -0.14957,0.0827 -0.23486,0.12994 -0.0647,0.0351 -0.15104,0.082 -0.23706,0.12871 -0.0655,0.0349 -0.15251,0.0812 -0.23927,0.12746 -0.0662,0.0346 -0.154,0.0805 -0.24148,0.1262 -0.0669,0.0343 -0.1555,0.0797 -0.24372,0.12494 -0.0677,0.034 -0.157,0.0789 -0.24596,0.12366 -0.0685,0.0338 -0.15852,0.0782 -0.24821,0.12238 -0.0693,0.0335 -0.16005,0.0774 -0.25048,0.12109 -0.07,0.0332 -0.16159,0.0766 -0.25276,0.11978 -0.0708,0.0329 -0.16314,0.0758 -0.25505,0.11847 -0.0716,0.0326 -0.16469,0.075 -0.25736,0.11715 -0.0724,0.0323 -0.16625,0.0741 -0.25966,0.1158 -0.0732,0.032 -0.16783,0.0733 -0.26199,0.11446 -0.074,0.0317 -0.16942,0.0725 -0.26432,0.1131 -0.0748,0.0314 -0.17101,0.0717 -0.26667,0.11174 -0.0757,0.031 -0.17262,0.0708 -0.26902,0.11035 -0.0765,0.0307 -0.17424,0.07 -0.27139,0.10896 -0.0774,0.0304 -0.17586,0.0691 -0.27377,0.10756 -0.0782,0.0301 -0.17749,0.0682 -0.27616,0.10614 -0.0791,0.0297 -0.17914,0.0673 -0.27855,0.10471 -0.0799,0.0294 -0.18079,0.0665 -0.28097,0.10328 -0.0808,0.029 -0.18245,0.0656 -0.28338,0.10182 -0.0817,0.0287 -0.18412,0.0647 -0.2858,0.10036 -0.0826,0.0283 -0.18582,0.0638 -0.28825,0.0989 -0.0835,0.028 -0.18751,0.0628 -0.29069,0.0974 -0.0844,0.0276 -0.18922,0.0619 -0.29315,0.0959 -0.0853,0.0272 -0.19093,0.061 -0.29561,0.0944 -0.0901,0.0281 -0.20026,0.0624 -0.30937,0.0964 -0.83241,0.25622 -1.67635,0.48695 -2.52801,0.69659 -1.24291,0.30613 -2.51474,0.57077 -3.81266,0.81411 -2.02984,0.38069 -4.05768,0.69903 -6.21871,1.068 -1.28142,0.21869 -2.57069,0.449 -3.8672,0.70836 -0.6234,0.12494 -1.19567,0.27242 -1.69133,0.41164 -0.69685,0.1962 -1.35064,0.40699 -1.93681,0.60488 -0.81683,0.27617 -1.60788,0.56369 -2.32169,0.82595 -1.23078,0.45239 -2.22848,0.82901 -3.30109,1.20326 -0.62301,0.21717 -1.19001,0.40468 -1.73254,0.56654 -0.44201,0.13165 -0.82579,0.2337 -1.17481,0.31142 -0.28033,0.0622 -0.49126,0.0981 -0.65482,0.1178 -0.11447,0.0137 -0.16812,0.014 -0.16258,0.014 a 6.2657757,6.2657757 90 0 0 0.005,12.53156 c 0.59942,-2.2e-4 1.15652,-0.0439 1.6562,-0.10386 0.67555,-0.0816 1.30336,-0.19943 1.87622,-0.32658 0.7167,-0.15959 1.39538,-0.34444 2.03503,-0.53495 0.78834,-0.2352 1.54739,-0.48814 2.27929,-0.74326 1.20474,-0.42036 2.38968,-0.86641 3.49704,-1.27343 0.69375,-0.25489 1.3582,-0.49568 2.0102,-0.71612 0.46959,-0.15853 0.90451,-0.29707 1.31828,-0.41358 0.2981,-0.0837 0.54579,-0.14482 0.75921,-0.18759 1.13176,-0.2264 2.29251,-0.43442 3.51549,-0.64315 1.93905,-0.33106 4.2627,-0.69945 6.41966,-1.10399 1.45104,-0.27204 2.96411,-0.58478 4.49915,-0.96287 1.06009,-0.26093 2.14044,-0.55558 3.23038,-0.89135 0.006,-0.002 0.0126,-0.004 0.0188,-0.006 0.1123,-0.035 0.22571,-0.0703 0.34024,-0.10599 0.0141,-0.004 0.0282,-0.009 0.0422,-0.0133 0.11158,-0.0356 0.22422,-0.0716 0.3379,-0.10789 0.0141,-0.005 0.0283,-0.009 0.0424,-0.0137 0.11086,-0.0363 0.22272,-0.0729 0.33557,-0.10977 0.0142,-0.005 0.0284,-0.009 0.0425,-0.0141 0.11014,-0.0369 0.22123,-0.0741 0.33325,-0.11165 0.0142,-0.005 0.0284,-0.01 0.0426,-0.0145 0.10941,-0.0375 0.21972,-0.0754 0.33092,-0.11353 0.0143,-0.005 0.0285,-0.01 0.0427,-0.0148 0.10869,-0.0382 0.21822,-0.0766 0.3286,-0.11538 0.0143,-0.005 0.0286,-0.0101 0.0428,-0.0152 0.10796,-0.0388 0.21672,-0.0779 0.32629,-0.11724 0.0143,-0.005 0.0286,-0.0104 0.0429,-0.0156 0.10722,-0.0394 0.21521,-0.0791 0.32397,-0.11909 0.0144,-0.005 0.0287,-0.0106 0.043,-0.016 0.10649,-0.04 0.21371,-0.0803 0.32166,-0.12092 0.0144,-0.005 0.0288,-0.0109 0.0431,-0.0164 0.10576,-0.0406 0.21221,-0.0816 0.31935,-0.12275 0.0144,-0.006 0.0288,-0.0111 0.0432,-0.0168 0.10502,-0.0413 0.21071,-0.0828 0.31706,-0.12456 0.0145,-0.006 0.0289,-0.0114 0.0433,-0.0172 0.10428,-0.0419 0.2092,-0.084 0.31475,-0.12637 0.0145,-0.006 0.029,-0.0117 0.0434,-0.0176 0.10355,-0.0425 0.20771,-0.0852 0.31246,-0.12817 0.0145,-0.006 0.029,-0.012 0.0435,-0.018 0.10281,-0.0431 0.2062,-0.0864 0.31017,-0.12997 0.0145,-0.006 0.029,-0.0122 0.0435,-0.0184 0.10207,-0.0437 0.2047,-0.0876 0.30789,-0.13174 0.0146,-0.006 0.0291,-0.0125 0.0436,-0.0188 0.10133,-0.0443 0.2032,-0.0888 0.3056,-0.13351 0.0146,-0.006 0.0291,-0.0128 0.0436,-0.0193 0.1006,-0.0449 0.20171,-0.09 0.30332,-0.13528 0.0146,-0.006 0.0291,-0.0131 0.0437,-0.0197 0.0999,-0.0454 0.20021,-0.0911 0.30105,-0.13703 0.0146,-0.007 0.0292,-0.0134 0.0437,-0.0201 0.0991,-0.046 0.19871,-0.0923 0.29877,-0.13878 0.0146,-0.007 0.0292,-0.0136 0.0437,-0.0205 0.0984,-0.0466 0.19723,-0.0935 0.29652,-0.14052 0.0146,-0.007 0.0292,-0.0139 0.0438,-0.0209 0.0976,-0.0472 0.19574,-0.0946 0.29426,-0.14224 0.0146,-0.007 0.0292,-0.0142 0.0438,-0.0214 0.0969,-0.0478 0.19425,-0.0958 0.292,-0.14396 0.0146,-0.007 0.0292,-0.0145 0.0438,-0.0218 0.0962,-0.0484 0.19276,-0.0969 0.28974,-0.14568 0.0146,-0.007 0.0292,-0.0148 0.0438,-0.0222 0.0954,-0.0489 0.19128,-0.0981 0.28749,-0.14738 0.0146,-0.007 0.0292,-0.015 0.0438,-0.0226 0.0947,-0.0495 0.18979,-0.0992 0.28524,-0.14907 0.0146,-0.008 0.0292,-0.0153 0.0437,-0.0231 0.094,-0.0501 0.18831,-0.10031 0.283,-0.15075 0.0146,-0.008 0.0292,-0.0156 0.0437,-0.0235 0.0932,-0.0506 0.18684,-0.10143 0.28077,-0.15243 0.0146,-0.008 0.0291,-0.0159 0.0437,-0.0239 0.0925,-0.0512 0.18536,-0.10255 0.27853,-0.1541 0.0146,-0.008 0.0291,-0.0162 0.0436,-0.0244 0.0918,-0.0517 0.18388,-0.10365 0.2763,-0.15575 0.0146,-0.008 0.0291,-0.0165 0.0436,-0.0248 0.091,-0.0523 0.18241,-0.10476 0.27407,-0.1574 0.0145,-0.008 0.0291,-0.0168 0.0435,-0.0252 0.0903,-0.0528 0.18094,-0.10585 0.27185,-0.15904 0.0145,-0.008 0.029,-0.017 0.0435,-0.0257 0.0896,-0.0534 0.17947,-0.10695 0.26963,-0.16068 0.0145,-0.009 0.029,-0.0173 0.0434,-0.0261 0.0889,-0.0539 0.178,-0.10803 0.26741,-0.16229 0.0145,-0.009 0.0289,-0.0176 0.0433,-0.0265 0.0881,-0.0545 0.17654,-0.10912 0.26521,-0.16392 0.0144,-0.009 0.0288,-0.0179 0.0432,-0.0269 0.0874,-0.055 0.17507,-0.11018 0.26299,-0.16552 0.0144,-0.009 0.0288,-0.0182 0.0431,-0.0274 0.0867,-0.0555 0.17362,-0.11125 0.2608,-0.16711 0.0144,-0.009 0.0287,-0.0185 0.043,-0.0278 0.086,-0.0561 0.17216,-0.11231 0.2586,-0.1687 0.0143,-0.009 0.0286,-0.0188 0.0429,-0.0282 0.0852,-0.0566 0.1707,-0.11336 0.2564,-0.17027 0.0143,-0.009 0.0285,-0.019 0.0427,-0.0286 0.0845,-0.0571 0.16925,-0.11441 0.2542,-0.17184 0.0142,-0.01 0.0284,-0.0193 0.0426,-0.0291 0.0838,-0.0577 0.1678,-0.11545 0.25202,-0.1734 0.0142,-0.01 0.0283,-0.0196 0.0425,-0.0295 0.0831,-0.0582 0.16635,-0.11649 0.24983,-0.17495 0.0141,-0.01 0.0282,-0.0199 0.0423,-0.0299 0.0823,-0.0587 0.1649,-0.11752 0.24765,-0.17649 0.0141,-0.01 0.0281,-0.0201 0.0421,-0.0303 0.0816,-0.0592 0.16346,-0.11855 0.24548,-0.17803 0.014,-0.0102 0.028,-0.0204 0.042,-0.0307 0.0809,-0.0597 0.16202,-0.11956 0.24331,-0.17955 0.014,-0.0103 0.0279,-0.0207 0.0418,-0.0311 0.0802,-0.0602 0.16058,-0.12058 0.24114,-0.18107 0.0139,-0.0104 0.0278,-0.0209 0.0416,-0.0315 0.0795,-0.0607 0.15914,-0.12159 0.23897,-0.18257 0.0138,-0.0106 0.0276,-0.0212 0.0414,-0.0319 0.0788,-0.0612 0.15771,-0.12258 0.23681,-0.18407 0.0138,-0.0107 0.0275,-0.0215 0.0412,-0.0323 0.0781,-0.0617 0.15628,-0.12359 0.23466,-0.18557 0.0137,-0.0108 0.0274,-0.0217 0.041,-0.0327 0.0773,-0.0622 0.15485,-0.12457 0.2325,-0.18704 0.0136,-0.011 0.0272,-0.022 0.0408,-0.0331 0.0766,-0.0627 0.15342,-0.12555 0.23035,-0.18851 0.0135,-0.0111 0.0271,-0.0222 0.0405,-0.0335 0.0759,-0.0632 0.152,-0.12653 0.22821,-0.18997 0.0135,-0.0112 0.0269,-0.0225 0.0403,-0.0338 0.0752,-0.0637 0.15058,-0.1275 0.22607,-0.19143 0.0134,-0.0113 0.0267,-0.0227 0.04,-0.0342 0.0745,-0.0642 0.14915,-0.12847 0.22393,-0.19288 0.0133,-0.0115 0.0266,-0.023 0.0398,-0.0345 0.0738,-0.0647 0.14774,-0.12943 0.2218,-0.19431 0.0132,-0.0116 0.0264,-0.0232 0.0395,-0.0349 0.0731,-0.0651 0.14632,-0.13038 0.21967,-0.19574 0.0131,-0.0117 0.0262,-0.0235 0.0392,-0.0353 0.0724,-0.0656 0.14492,-0.13132 0.21755,-0.19715 0.013,-0.0118 0.026,-0.0237 0.039,-0.0356 0.0717,-0.0661 0.1435,-0.13227 0.21543,-0.19856 0.0129,-0.0119 0.0258,-0.0239 0.0387,-0.036 0.071,-0.0666 0.14209,-0.1332 0.2133,-0.19996 0.0128,-0.012 0.0256,-0.0241 0.0384,-0.0363 0.0703,-0.067 0.14069,-0.13414 0.21119,-0.20136 0.0128,-0.0122 0.0255,-0.0244 0.0381,-0.0366 0.0696,-0.0675 0.13929,-0.13506 0.20909,-0.20274 0.0126,-0.0123 0.0252,-0.0246 0.0378,-0.037 0.0689,-0.0679 0.13789,-0.13597 0.20698,-0.20411 0.0126,-0.0124 0.025,-0.0248 0.0375,-0.0373 0.0682,-0.0684 0.13649,-0.13689 0.20488,-0.20547 0.0124,-0.0125 0.0248,-0.025 0.0371,-0.0376 0.0675,-0.0688 0.1351,-0.13779 0.20279,-0.20683 0.0123,-0.0126 0.0246,-0.0252 0.0368,-0.0379 0.0668,-0.0693 0.13371,-0.13869 0.20069,-0.20818 0.0122,-0.0127 0.0244,-0.0254 0.0365,-0.0382 0.0661,-0.0697 0.13232,-0.13959 0.1986,-0.20952 0.0121,-0.0128 0.0242,-0.0256 0.0361,-0.0385 0.0654,-0.0702 0.13093,-0.14048 0.19651,-0.21084 0.012,-0.0129 0.0239,-0.0258 0.0358,-0.0388 0.0647,-0.0706 0.12955,-0.14136 0.19443,-0.21217 0.0119,-0.013 0.0237,-0.026 0.0355,-0.039 0.0641,-0.0711 0.12816,-0.14224 0.19236,-0.21348 0.0118,-0.0131 0.0234,-0.0261 0.0351,-0.0393 0.0634,-0.0715 0.12678,-0.14311 0.19028,-0.21478 0.0116,-0.0131 0.0232,-0.0263 0.0347,-0.0395 0.0627,-0.0719 0.1254,-0.14397 0.18821,-0.21607 0.0115,-0.0132 0.023,-0.0265 0.0344,-0.0398 0.062,-0.0724 0.12403,-0.14483 0.18614,-0.21735 0.0114,-0.0133 0.0227,-0.0267 0.034,-0.0401 0.0613,-0.0728 0.12266,-0.14568 0.18408,-0.21863 0.0113,-0.0134 0.0225,-0.0268 0.0336,-0.0403 0.0606,-0.0732 0.12129,-0.14653 0.18202,-0.21991 0.0111,-0.0134 0.0222,-0.027 0.0333,-0.0405 0.0599,-0.0736 0.11992,-0.14738 0.17997,-0.22116 0.011,-0.0135 0.022,-0.0271 0.0329,-0.0407 0.0593,-0.0741 0.11856,-0.1482 0.17792,-0.2224 0.0109,-0.0136 0.0217,-0.0272 0.0325,-0.0409 0.0586,-0.0745 0.1172,-0.14903 0.17587,-0.22364 0.0108,-0.0137 0.0214,-0.0274 0.0321,-0.0412 0.0579,-0.0749 0.11584,-0.14985 0.17383,-0.22487 0.0106,-0.0137 0.0212,-0.0275 0.0317,-0.0413 0.0572,-0.0753 0.11448,-0.15067 0.17179,-0.2261 0.0105,-0.0138 0.0209,-0.0276 0.0313,-0.0415 0.0565,-0.0757 0.11313,-0.15149 0.16975,-0.22732 0.0104,-0.0139 0.0207,-0.0278 0.0309,-0.0417 0.0559,-0.0761 0.11177,-0.15229 0.16772,-0.22851 0.0102,-0.0139 0.0204,-0.0279 0.0305,-0.0419 0.0552,-0.0765 0.11043,-0.1531 0.1657,-0.22972 0.0101,-0.014 0.0201,-0.028 0.0301,-0.0421 0.0545,-0.0769 0.10908,-0.15389 0.16367,-0.23091 0.01,-0.014 0.0198,-0.0281 0.0297,-0.0422 0.0539,-0.0773 0.10774,-0.15467 0.16166,-0.23208 0.01,-0.0141 0.0196,-0.0282 0.0292,-0.0424 0.0532,-0.0777 0.10639,-0.15545 0.15963,-0.23324 0.01,-0.0141 0.0193,-0.0283 0.0288,-0.0425 0.0525,-0.0781 0.10505,-0.15623 0.15763,-0.23442 0.01,-0.0142 0.019,-0.0284 0.0284,-0.0426 0.0519,-0.0785 0.10372,-0.15699 0.15562,-0.23556 0.009,-0.0142 0.0187,-0.0285 0.028,-0.0428 0.0512,-0.0789 0.10238,-0.15777 0.15361,-0.23671 0.009,-0.0143 0.0185,-0.0285 0.0276,-0.0429 0.0505,-0.0792 0.10105,-0.15852 0.15162,-0.23784 0.009,-0.0143 0.0182,-0.0286 0.0272,-0.043 0.0498,-0.0796 0.0997,-0.15928 0.14962,-0.23897 0.009,-0.0143 0.0179,-0.0287 0.0267,-0.0431 0.0492,-0.08 0.0984,-0.16002 0.14764,-0.24008 0.009,-0.0143 0.0176,-0.0287 0.0263,-0.0432 0.0485,-0.0804 0.0971,-0.16076 0.14565,-0.24118 0.009,-0.0144 0.0173,-0.0288 0.0259,-0.0433 0.0479,-0.0807 0.0958,-0.16149 0.14366,-0.24228 0.009,-0.0144 0.017,-0.0289 0.0255,-0.0433 0.0472,-0.0811 0.0944,-0.16222 0.14168,-0.24337 0.008,-0.0144 0.0167,-0.0289 0.025,-0.0434 0.0465,-0.0815 0.0931,-0.16294 0.13971,-0.24446 0.008,-0.0145 0.0165,-0.0289 0.0246,-0.0435 0.0459,-0.0818 0.0918,-0.16367 0.13774,-0.24553 0.008,-0.0145 0.0162,-0.029 0.0242,-0.0435 0.0452,-0.0822 0.0905,-0.16437 0.13576,-0.24659 0.008,-0.0145 0.0159,-0.029 0.0238,-0.0436 0.0446,-0.0825 0.0892,-0.16507 0.1338,-0.24764 0.008,-0.0145 0.0156,-0.029 0.0233,-0.0436 0.0439,-0.0829 0.0879,-0.16578 0.13185,-0.24869 0.008,-0.0145 0.0153,-0.0291 0.0229,-0.0436 0.0433,-0.0832 0.0866,-0.16647 0.12988,-0.24973 0.008,-0.0145 0.0151,-0.0291 0.0225,-0.0437 0.0426,-0.0836 0.0853,-0.16716 0.12793,-0.25076 0.007,-0.0145 0.0148,-0.0291 0.0221,-0.0437 0.042,-0.0839 0.084,-0.16783 0.12598,-0.25177 0.007,-0.0145 0.0145,-0.0291 0.0216,-0.0437 0.0413,-0.0842 0.0827,-0.16852 0.12404,-0.25278 0.007,-0.0145 0.0142,-0.0291 0.0212,-0.0437 0.0407,-0.0846 0.0814,-0.16918 0.1221,-0.25378 0.007,-0.0145 0.0139,-0.0291 0.0208,-0.0437 0.0401,-0.0849 0.0801,-0.16985 0.12016,-0.25478 0.007,-0.0145 0.0136,-0.0291 0.0204,-0.0437 0.0394,-0.0852 0.0788,-0.17051 0.11823,-0.25576 0.007,-0.0145 0.0134,-0.0291 0.02,-0.0437 0.0388,-0.0856 0.0775,-0.17115 0.11629,-0.25673 0.007,-0.0145 0.0131,-0.0291 0.0196,-0.0436 0.0381,-0.0859 0.0763,-0.1718 0.11437,-0.2577 0.006,-0.0145 0.0128,-0.029 0.0192,-0.0436 0.0375,-0.0862 0.075,-0.17245 0.11245,-0.25866 0.006,-0.0145 0.0126,-0.029 0.0188,-0.0436 0.0368,-0.0865 0.0737,-0.17307 0.11054,-0.25959 0.006,-0.0145 0.0123,-0.029 0.0183,-0.0435 0.0362,-0.0869 0.0724,-0.17371 0.10862,-0.26054 0.006,-0.0145 0.012,-0.029 0.0179,-0.0435 0.0356,-0.0872 0.0711,-0.17432 0.10671,-0.26146 0.006,-0.0145 0.0118,-0.0289 0.0175,-0.0434 0.0349,-0.0875 0.0699,-0.17495 0.1048,-0.26239 0.006,-0.0144 0.0115,-0.0289 0.0171,-0.0434 0.0343,-0.0878 0.0686,-0.17556 0.10291,-0.2633 0.006,-0.0144 0.0112,-0.0289 0.0167,-0.0433 0.0337,-0.0881 0.0674,-0.17616 0.10101,-0.26421 0.006,-0.0144 0.011,-0.0288 0.0164,-0.0432 0.0331,-0.0884 0.0661,-0.17676 0.0991,-0.2651 0.005,-0.0144 0.0107,-0.0288 0.016,-0.0432 0.0324,-0.0887 0.0648,-0.17735 0.0972,-0.26599 0.005,-0.0143 0.0104,-0.0287 0.0156,-0.0431 0.0318,-0.089 0.0636,-0.17794 0.0953,-0.26686 0.005,-0.0143 0.0102,-0.0287 0.0152,-0.043 0.0312,-0.0893 0.0623,-0.17852 0.0935,-0.26772 0.005,-0.0143 0.01,-0.0286 0.0148,-0.0429 0.0305,-0.0896 0.0611,-0.17909 0.0916,-0.26858 0.005,-0.0143 0.01,-0.0285 0.0144,-0.0428 0.0299,-0.0899 0.0598,-0.17966 0.0897,-0.26943 0.005,-0.0142 0.009,-0.0285 0.014,-0.0427 0.0293,-0.0901 0.0586,-0.18022 0.0878,-0.27027 0.005,-0.0142 0.009,-0.0284 0.0137,-0.0426 0.0287,-0.0904 0.0573,-0.18078 0.086,-0.2711 0.004,-0.0142 0.009,-0.0283 0.0133,-0.0425 0.0281,-0.0907 0.0561,-0.18134 0.0841,-0.27193 0.004,-0.0141 0.009,-0.0283 0.0129,-0.0424 0.0274,-0.091 0.0549,-0.18188 0.0823,-0.27274 0.004,-0.0141 0.008,-0.0282 0.0126,-0.0423 0.0268,-0.0912 0.0536,-0.18242 0.0804,-0.27355 0.004,-0.014 0.008,-0.0281 0.0122,-0.0422 0.0262,-0.0915 0.0524,-0.18294 0.0785,-0.27433 0.004,-0.014 0.008,-0.028 0.0119,-0.0421 0.0256,-0.0918 0.0511,-0.18348 0.0767,-0.27514 0.004,-0.014 0.008,-0.0279 0.0115,-0.0419 0.025,-0.092 0.0499,-0.184 0.0748,-0.2759 0.004,-0.0139 0.008,-0.0279 0.0112,-0.0418 0.0243,-0.0923 0.0487,-0.18452 0.073,-0.27668 0.004,-0.0139 0.007,-0.0278 0.0109,-0.0417 0.0237,-0.0926 0.0475,-0.18503 0.0712,-0.27744 0.004,-0.0138 0.007,-0.0277 0.0105,-0.0415 0.0231,-0.0928 0.0462,-0.18554 0.0693,-0.2782 0.003,-0.0138 0.007,-0.0276 0.0102,-0.0414 0.0225,-0.0931 0.045,-0.18603 0.0675,-0.27893 0.003,-0.0137 0.007,-0.0275 0.01,-0.0413 0.0219,-0.0933 0.0438,-0.18653 0.0657,-0.27967 0.003,-0.0137 0.006,-0.0274 0.01,-0.0411 0.0213,-0.0936 0.0426,-0.18702 0.0639,-0.2804 0.003,-0.0136 0.006,-0.0273 0.009,-0.041 0.0207,-0.0938 0.0414,-0.1875 0.0621,-0.28111 0.003,-0.0136 0.006,-0.0272 0.009,-0.0408 0.0201,-0.094 0.0402,-0.18797 0.0603,-0.28182 0.003,-0.0136 0.006,-0.0271 0.009,-0.0407 0.0195,-0.0943 0.039,-0.18844 0.0584,-0.28252 0.003,-0.0135 0.006,-0.027 0.008,-0.0405 0.0189,-0.0945 0.0378,-0.1889 0.0566,-0.28321 0.003,-0.0134 0.005,-0.0269 0.008,-0.0404 0.0183,-0.0947 0.0366,-0.18936 0.0548,-0.28389 0.003,-0.0134 0.005,-0.0268 0.008,-0.0402 0.0177,-0.095 0.0354,-0.18981 0.0531,-0.28456 0.002,-0.0134 0.005,-0.0267 0.007,-0.0401 0.0171,-0.0952 0.0342,-0.19026 0.0513,-0.28523 0.002,-0.0133 0.005,-0.0266 0.007,-0.0399 0.0165,-0.0954 0.033,-0.1907 0.0495,-0.28589 0.002,-0.0132 0.005,-0.0265 0.007,-0.0397 0.0159,-0.0956 0.0318,-0.19113 0.0477,-0.28653 0.002,-0.0132 0.004,-0.0264 0.006,-0.0396 0.0153,-0.0958 0.0306,-0.19156 0.0459,-0.28716 0.002,-0.0131 0.004,-0.0263 0.006,-0.0394 0.0147,-0.096 0.0294,-0.19198 0.0441,-0.28779 0.002,-0.0131 0.004,-0.0262 0.006,-0.0392 0.0141,-0.0963 0.0283,-0.1924 0.0423,-0.2884 0.002,-0.013 0.004,-0.026 0.006,-0.0391 0.0135,-0.0965 0.0271,-0.19281 0.0406,-0.28902 0.002,-0.013 0.004,-0.0259 0.005,-0.0389 0.013,-0.0967 0.0259,-0.19322 0.0388,-0.28962 0.002,-0.0129 0.003,-0.0258 0.005,-0.0387 0.0124,-0.0969 0.0247,-0.19362 0.0371,-0.29022 0.002,-0.0129 0.003,-0.0257 0.005,-0.0385 0.0118,-0.0971 0.0236,-0.19401 0.0353,-0.29079 0.002,-0.0128 0.003,-0.0256 0.005,-0.0384 0.0112,-0.0973 0.0224,-0.19439 0.0336,-0.29137 0.001,-0.0127 0.003,-0.0255 0.004,-0.0382 0.0106,-0.0975 0.0212,-0.19478 0.0318,-0.29194 0.001,-0.0127 0.003,-0.0254 0.004,-0.038 0.01,-0.0976 0.0201,-0.19515 0.0301,-0.29249 0.001,-0.0126 0.003,-0.0252 0.004,-0.0379 0.009,-0.0978 0.0189,-0.19552 0.0283,-0.29304 0.001,-0.0126 0.002,-0.0251 0.004,-0.0377 0.009,-0.098 0.0177,-0.19589 0.0266,-0.29358 0.001,-0.0125 0.002,-0.025 0.003,-0.0375 0.008,-0.0982 0.0166,-0.19624 0.0248,-0.29411 0.001,-0.0124 0.002,-0.0249 0.003,-0.0373 0.008,-0.0984 0.0154,-0.1966 0.0231,-0.29464 9.7e-4,-0.0124 0.002,-0.0248 0.003,-0.0372 0.007,-0.0986 0.0143,-0.19694 0.0214,-0.29514 9e-4,-0.0123 0.002,-0.0247 0.003,-0.037 0.007,-0.0987 0.0131,-0.19729 0.0197,-0.29565 8.2e-4,-0.0123 0.002,-0.0245 0.002,-0.0368 0.006,-0.0989 0.012,-0.19762 0.018,-0.29614 7.4e-4,-0.0122 0.001,-0.0244 0.002,-0.0366 0.005,-0.0991 0.0109,-0.19795 0.0163,-0.29663 6.7e-4,-0.0121 0.001,-0.0243 0.002,-0.0365 0.005,-0.0992 0.01,-0.19827 0.0145,-0.2971 5.9e-4,-0.0121 0.001,-0.0242 0.002,-0.0363 0.004,-0.0994 0.009,-0.19859 0.0128,-0.29757 5.2e-4,-0.012 0.001,-0.0241 0.001,-0.0361 0.004,-0.0996 0.007,-0.19891 0.0111,-0.29804 4.5e-4,-0.012 8.6e-4,-0.0239 0.001,-0.0359 0.003,-0.0997 0.006,-0.19922 0.009,-0.29849 3.8e-4,-0.0119 7.2e-4,-0.0238 0.001,-0.0358 0.003,-0.0999 0.005,-0.19951 0.008,-0.29892 3.1e-4,-0.0119 5.8e-4,-0.0237 8.2e-4,-0.0356 0.002,-0.10002 0.004,-0.19981 0.006,-0.29935 2.4e-4,-0.0118 4.5e-4,-0.0236 6.2e-4,-0.0354 0.001,-0.10017 0.003,-0.2001 0.004,-0.29979 1.7e-4,-0.0117 3.1e-4,-0.0235 4.1e-4,-0.0352 9e-4,-0.10031 0.002,-0.20038 0.003,-0.3002 1.1e-4,-0.0117 1.8e-4,-0.0234 2.2e-4,-0.035 3.3e-4,-0.10046 6.7e-4,-0.20066 10e-4,-0.3006 4e-5,-0.0116 5e-5,-0.0232 2e-5,-0.0349 -2.2e-4,-0.1006 -4.5e-4,-0.20094 -6.7e-4,-0.301 -3e-5,-0.0116 -8e-5,-0.0231 -1.7e-4,-0.0347 -7.9e-4,-0.10073 -0.002,-0.2012 -0.002,-0.30138 -9e-5,-0.0115 -2.1e-4,-0.023 -3.6e-4,-0.0345 -0.001,-0.10087 -0.003,-0.20146 -0.004,-0.30177 -1.5e-4,-0.0115 -3.3e-4,-0.0229 -5.5e-4,-0.0344 -0.002,-0.101 -0.004,-0.20172 -0.006,-0.30214 -2.1e-4,-0.0114 -4.6e-4,-0.0228 -7.3e-4,-0.0342 -0.002,-0.10113 -0.005,-0.20197 -0.007,-0.3025 -2.8e-4,-0.0113 -5.8e-4,-0.0227 -9.2e-4,-0.034 -0.003,-0.10125 -0.006,-0.20221 -0.009,-0.30285 -3.4e-4,-0.0113 -7e-4,-0.0226 -0.001,-0.0339 -0.004,-0.10138 -0.007,-0.20244 -0.0106,-0.30319 -3.9e-4,-0.0112 -8.2e-4,-0.0224 -0.001,-0.0337 -0.004,-0.1015 -0.008,-0.20268 -0.0123,-0.30353 -4.6e-4,-0.0112 -9.4e-4,-0.0223 -0.001,-0.0335 -0.005,-0.10162 -0.009,-0.2029 -0.0139,-0.30385 -2.6e-4,-0.006 -5.2e-4,-0.0111 -7.9e-4,-0.0167 -0.0164,-0.33915 -0.0356,-0.67675 -0.0572,-1.01271 -0.0219,-0.33959 -0.0463,-0.67756 -0.0733,-1.01383 -0.0273,-0.33999 -0.057,-0.67826 -0.0892,-1.01478 -0.0326,-0.34028 -0.0676,-0.67879 -0.10501,-1.01548 -0.0378,-0.34051 -0.0781,-0.67919 -0.12063,-1.01599 -0.043,-0.34067 -0.0884,-0.67945 -0.13609,-1.01628 -0.0482,-0.34077 -0.0987,-0.67957 -0.15138,-1.01636 -0.0711,-0.45466 -0.14634,-0.90635 -0.2254,-1.35495 -0.0801,-0.45453 -0.16418,-0.90598 -0.25199,-1.35424 -0.089,-0.45427 -0.18181,-0.90533 -0.27824,-1.3531 -0.12224,-0.56755 -0.25044,-1.13059 -0.38422,-1.68896 -0.13573,-0.56654 -0.27723,-1.1284 -0.42409,-1.68543 -0.17891,-0.67857 -0.36602,-1.35081 -0.56071,-2.01652 -0.23079,-0.78915 -0.4725,-1.57 -0.72429,-2.34229 -0.32927,-1.00994 -0.6764,-2.00717 -1.03987,-2.99116 -0.45228,-1.22441 -0.93063,-2.43044 -1.43272,-3.6172 -0.86889,-2.05374 -1.7816,-4.11305 -2.769,-6.1572 -0.92747,-1.91992 -1.92176,-3.82871 -3.0087,-5.7044 -1.00438,-1.73307 -2.08857,-3.43885 -3.27191,-5.09385 -1.13848,-1.59227 -2.36858,-3.13669 -3.70248,-4.60645 -1.22233,-1.34705 -2.52854,-2.62715 -3.91989,-3.81911 -1.35243,-1.15898 -2.77906,-2.22876 -4.27118,-3.19491 -1.29308,-0.83674 -2.61247,-1.58712 -3.94197,-2.26014 -1.82759,-0.92516 -3.6855,-1.70969 -5.53964,-2.37626 -1.99889,-0.71859 -4.00594,-1.30499 -5.99118,-1.78627 -2.18238,-0.52893 -4.3562,-0.93538 -6.49567,-1.24877 -2.36996,-0.34696 -4.71883,-0.58289 -7.02397,-0.73827 -2.67776,-0.18031 -5.32348,-0.25361 -7.91254,-0.25617 -0.0151,-1e-5 -0.0301,3e-5 -0.0452,1.2e-4 -0.0899,5.6e-4 -0.0428,-0.004 0.13367,0.004 -0.0661,-0.003 -0.12104,-0.006 -0.25588,-0.0138 -0.51491,-0.0288 -1.0628,-0.0575 -1.62345,-0.0784 -0.38741,-0.0143 -0.80402,-0.0263 -1.23851,-0.0287 -0.26296,-0.001 -0.58186,3.2e-4 -0.93071,0.0155 -0.004,1.8e-4 -0.009,3.8e-4 -0.0129,5.7e-4 -0.17734,0.008 -0.47572,0.0241 -0.82314,0.0668 -0.0119,0.001 -0.0238,0.003 -0.0358,0.005 -0.11445,0.0147 -0.59441,0.0733 -1.1615,0.23994 -0.047,0.0138 -0.0938,0.0281 -0.14038,0.043 -0.0304,0.01 -0.27174,0.0748 -0.70135,0.26728 -0.43596,0.19534 -1.09153,0.54285 -1.76243,1.17118 -0.0522,0.0489 -0.1036,0.0987 -0.15411,0.14936 -0.60377,0.60558 -0.98849,1.2052 -1.21069,1.59066 -0.003,0.004 -0.005,0.009 -0.008,0.0133 -0.32412,0.56546 -0.53107,1.08002 -0.65858,1.43017 -0.001,0.004 -0.003,0.007 -0.004,0.0111 -0.1909,0.52732 -0.31699,1.00582 -0.40252,1.36954 -0.12687,0.54243 -0.2119,1.03791 -0.27366,1.45066 -0.09,0.60465 -0.15045,1.17185 -0.19547,1.67073 -0.0708,0.78923 -0.11481,1.54675 -0.14801,2.21636 -0.007,0.13861 -0.0133,0.27549 -0.0194,0.40914 -0.0163,0.35601 -0.0391,0.91186 -0.0554,1.26787 -0.014,0.30834 -0.026,0.55478 -0.0417,0.78698 -0.008,0.11711 -0.0149,0.18857 -0.017,0.20848 -0.28409,2.27425 -0.51117,4.52752 -0.69018,6.75123 -0.3181,3.95047 -0.48908,7.86032 -0.55595,11.69657 -0.0737,4.22829 -0.0217,8.40612 0.10515,12.49092 0.14629,4.7106 0.39475,9.3759 0.67712,13.91098 0.0739,1.16952 0.13584,2.32872 0.18986,3.47573 0.0899,1.91161 0.15937,3.81053 0.21475,5.68325 0.0719,2.44292 0.11986,4.85463 0.14677,7.23017 0.0276,2.4587 0.0326,4.8699 0.0121,7.24475 -0.0173,1.98828 -0.0522,3.9262 -0.11043,5.8325 -0.0467,1.52078 -0.10727,2.99184 -0.18897,4.43392 -0.0635,1.11586 -0.13761,2.18211 -0.23021,3.21973 -0.027,0.30749 -0.0581,0.60307 -0.0932,0.89458 -0.10946,0.91182 -0.2622,1.851 -0.43517,2.83802 -0.23498,1.34066 -0.51783,2.82058 -0.74858,4.30854 -0.17001,1.09675 -0.31597,2.22142 -0.40668,3.37687 -0.0528,0.66076 -0.0694,1.28849 -0.0703,1.84265 -0.002,0.96602 0.0464,1.93699 0.077,2.62165 0.0349,0.78075 0.056,1.33752 0.0516,1.87046 -0.004,0.44024 -0.0257,0.77191 -0.0586,1.03671 -0.0311,0.25064 -0.0713,0.43017 -0.10725,0.55476 -0.0369,0.12819 -0.0761,0.22236 -0.10846,0.28829 a 6.2657757,6.2657757 90 0 0 11.24748,5.52576 z"
   id="path-1"
   inkscape:path-effect="#path-effect81;#path-effect82"
   inkscape:original-d="m 159.1507,379.28829 c 1.59349,-3.24586 0.56668,-6.94909 0.83544,-10.44296 0.28894,-3.75625 1.32951,-7.52342 1.67087,-11.2784 0.9055,-9.96046 0.6214,-28.07005 0,-38.01237 -0.91252,-14.60042 -1.39871,-29.32894 0.41772,-43.86043 0.21473,-1.71785 0.0651,-7.584 1.25316,-8.77209 0.26262,-0.26262 3.96117,0 4.17718,0 11.17893,0 23.76391,1.37576 33.41747,7.51893 9.38502,5.97229 14.63703,16.06511 18.79733,25.89854 10.92013,25.81122 7.19459,55.52854 -22.13908,64.32863 -5.57495,1.67249 -11.04364,2.20873 -16.70873,3.34175 -3.94495,0.78899 -10.52872,4.17719 -14.20243,4.17719"
   style="fill:#000000;fill-rule:nonzero;stroke:none;stroke-width:1px;stroke-linecap:butt;stroke-linejoin:miter;stroke-opacity:1" /><path
   style="fill:#d45500;stroke-width:1.37804"
   d="m 450.51142,157.56219 c -29.42393,1.26114 -55.42481,30.37632 -50.06699,60.10892 3.61872,27.72656 31.87686,49.39239 59.69713,44.60328 33.14164,-3.6863 56.68736,-44.36376 39.91202,-74.26613 -9.21198,-18.35579 -28.52042,-31.81591 -49.54216,-30.44607 z"
   id="path95"
   transform="scale(0.60625)" /><path
   style="fill:#d45500;stroke-width:1.37804"
   d="m 295.76452,396.95627 c -10.82603,0.60401 -16.30142,12.20983 -24.04597,18.22666 -36.7792,38.70695 -74.54966,76.58859 -109.2444,117.19807 -7.54715,13.13155 -4.1302,29.31107 -5.3848,43.79041 -0.16627,22.26264 -0.0721,44.52619 -0.0978,66.78922 161.76001,0 323.52002,0 485.28002,0 -0.51762,-39.31762 1.11103,-79.00678 -1.09274,-117.81434 -4.72259,-17.06958 -20.37461,-27.71472 -31.07194,-40.92939 -14.24463,-14.52652 -27.93089,-30.36153 -43.36375,-43.30062 -9.94108,0.42467 -17.66341,9.28657 -26.69667,13.15114 -22.82305,12.13605 -44.01654,28.66994 -69.33549,35.2579 -20.07336,3.91873 -40.95791,-1.34622 -57.3533,-13.43081 -38.6366,-25.40228 -75.10223,-54.29945 -114.18577,-78.86019 -1.13012,-0.13645 -2.27193,-0.14316 -3.40743,-0.078 z"
   id="path96"
   transform="scale(0.60625)" /></svg>
